<svg xmlns="http://www.w3.org/2000/svg" viewBox="0 0 502.5 185.3" height="41" width="112"><path d="M461.7 77.3H482v20.6h-20.3zm0-46.8H482v20.3h-20.3z" fill="#e07828"/><path d="M24.6.1H.1v102.1h17V26.1l28.8 76.1h10.4l28.9-76.1v76.1H102V.1H77.6L51.1 73.5 24.6.1m269.7 79.3c-6.4 5.7-13.2 8.7-20.1 8.7-12.8 0-22.9-11.1-22.9-25.3 0-15.1 9.5-25.7 22.9-25.7 6.9 0 13.5 2.4 18.5 6.8l8.5-12.5c-8.3-6.8-17-9.9-28.1-9.9-22.7 0-38.5 16.8-38.5 41.3 0 23.9 15.9 41.1 38.5 41.1 11.1 0 21.7-4.2 30-12l-8.8-12.5zm-146-57.8c-10.6.3-21 4-29.3 10.4l8.3 12.5s9.4-7.8 20.8-7.8c9 0 12.7 4.5 12.7 12.5v4.5H143c-17.2 0-28.1 9.9-28.1 24.4 0 14.7 10.4 25.7 28.3 25.7 7.3 0 14.4-3.1 17.7-7.8v6.2h16.6V50.1c0-18.8-9.9-28.5-29.2-28.5zm84.1 1.6c-4-1-7.6-1.6-11.4-1.6-18.7 0-30 10.7-30 28.9v51.7h16.1V51.6c0-10.2 6.2-14.9 15.4-14.9 2.3 0 4.7.3 6.8 1l3.1-14.5zm172.7 21.3c0-4.3 4.2-8 10.9-8 11.6 0 21 7.5 21 7.5l8.7-12.5c-8.7-6.2-18.2-9.9-29.1-9.9-16.6 0-27.9 10.7-27.9 22.9 0 31.5 43 21.1 43 35.9 0 4.2-4.5 8.7-11.8 8.7-13 0-24.6-9.7-24.6-9.7l-8.7 12.8c9.4 7.3 20.8 11.6 32.6 11.6 17.7 0 29.1-12 29.1-23.9-.1-29.8-43.2-20.3-43.2-35.4zm-65.4 59.3c7.8 0 14.9-3.1 18.7-8v6.4h16.1V23h-16.1v50.4c0 9-8.3 15.6-16.3 15.6-7.3 0-14.9-5-14.9-15.6V23h-16.1v53.2c0 16.5 10.9 27.6 28.6 27.6zM161.2 76.6c0 7.5-8.1 13.5-16.5 13.5-8.8 0-14-4.5-14-11.8 0-5.4 5-10.9 14.4-10.9h16.1v9.2zm-11 97.9h9v-42.1h-9v42.1zm27.4.9c3.6 0 6.8-1.7 8.7-4.9l.5 4h7.6v-42.1h-9.2v15.1c-1.7-2.6-4.3-4-7.8-4-7.5 0-11.8 5.7-11.8 15.9s4.4 16 12 16zm256.9-20.3c.5-2.6 2.4-4.3 4.9-4.3 2.6 0 4 1.4 4 4v19.8h9.2v-20.5c0-7.1-3.3-10.6-10.1-10.6-3.1 0-6.1 1.7-8 4.3v-15.4h-9.2v42.1h9.2v-19.4zM16.8 175.4c7.6 0 12.1-5.9 12.1-15.9s-4.3-15.9-12-15.9c-3.3 0-5.9 1.2-7.6 3.6v-14.7H.1v42.1h7.6l.5-4c2 2.9 5.1 4.8 8.6 4.8zm78.5 0c4.7 0 10.2-.9 13.5-2.1v-21.7H93.2v7.3h7.3v8.5c-1.6.2-3.3.3-4.9.3-7.8 0-10.4-2.9-10.4-12.3 0-10.1 3.1-13.9 11.3-13.9 2.9 0 6.2.7 9.4 1.9l1.9-7.1c-2.8-1.6-7.5-2.4-12.1-2.4-13.5 0-19.9 6.9-19.9 21.1-.1 14.1 6 20.4 19.5 20.4zm248.9 0c10.2 0 15.4-4.3 15.4-12.7 0-6.9-3.1-10.4-10.6-12l-4.2-.9c-2.9-.7-4-1.6-4-4 0-2.9 1.9-4.3 6.1-4.3 2.9 0 6.6.9 9.5 2.1l1.7-7.3c-2.9-1.6-7.6-2.4-12-2.4-9.4 0-14.7 4.5-14.7 12.3 0 6.4 3.5 10.4 10.2 11.8l4.3 1c3.1.7 4.2 1.7 4.2 3.8 0 3.3-2.4 4.9-7.3 4.9-3.1 0-6.9-.9-10.2-2.4l-2.1 7.1c4 1.9 8.9 3 13.7 3zm66.9 0c3.3 0 6.4-.7 8.8-1.7l-1.7-6.6c-2.1.7-3.8 1-5.5 1-5 0-6.9-2.3-6.9-8.5s2.1-9 7.1-9c1.6 0 3.3.3 5.2 1l1.7-6.6c-2.4-1.2-5.2-1.7-8.3-1.7-9.7 0-15.1 5.9-15.1 16.3 0 10.6 4.8 15.8 14.7 15.8zm-209-.9h9.2v-19.4c.7-2.8 2.6-4.3 5-4.3s3.3 1.2 3.3 4.2v19.6h9.2v-19.4c.5-2.6 2.4-4.3 4.9-4.3 2.6 0 3.5 1.2 3.5 4.2v19.6h9.2v-20.3c0-7.3-3.1-10.7-9.5-10.7-3.6 0-7.1 2.1-8.8 5.4-1.2-3.6-4.2-5.4-8.5-5.4-3.8 0-7.3 2.3-9 5.9l-.7-5h-7.6v29.9zm59.1.7c4 0 7.1-1.9 9-5.2l.7 4.5h7.6v-19.2c0-8.5-3.6-11.8-12.7-11.8-3.8 0-8.1.7-11.8 1.9l1.7 6.8c3.3-1 6.4-1.6 9-1.6 4 0 5 1.2 5 5.5v.2h-5.2c-8.8 0-12.8 3.1-12.8 9.9.1 5.9 3.4 9 9.5 9zm24.9-.7h9.2v-19.4c.5-2.6 2.4-4.3 4.9-4.3 2.6 0 4 1.4 4 4v19.8h9.2v-20.5c0-7.1-3.3-10.6-10.1-10.6-3.8 0-7.3 2.3-8.8 5.5l-.7-4.7h-7.6v30.2zm182.9.9c8.8 0 13-3.1 13-9.9 0-5.5-1.9-7.6-9.2-9.4l-2.6-.5c-2.3-.5-3.3-1.4-3.3-2.8 0-1.7 1.4-2.6 4.3-2.6 2.3 0 5.5.7 8.1 1.6l1.7-6.4c-3.3-1.4-6.6-1.9-10.6-1.9-7.5 0-11.6 3.5-11.6 9.7 0 5.2 2.4 8.1 8.1 9.2l3.5.9c2.6.5 3.3 1.2 3.3 2.6 0 1.9-1.4 2.8-4.5 2.8-2.9 0-6.2-.7-9.2-2.1l-1.9 6.6c2.4 1.1 6.9 2.2 10.9 2.2zm-324.8-16c0-10.2-5-15.9-14.4-15.9s-14.4 5.7-14.4 15.9 5 15.9 14.4 15.9c9.3.1 14.4-5.6 14.4-15.9zm229.3 15.8c4 0 7.1-1.9 9-5.2l.7 4.5h7.6v-19.2c0-8.5-3.6-11.8-12.7-11.8-3.8 0-8.1.7-11.8 1.9l1.7 6.8c3.3-1 6.4-1.6 9-1.6 4 0 5 1.2 5 5.5v.2h-5c-8.8 0-12.8 3.1-12.8 9.9-.1 5.9 3.2 9 9.3 9zM49 185.1l13.2-40.7H52.1L46 166.2l-5.7-21.8h-9.9l8.8 28.4H44l-4.3 12.3H49zm85.8-25.7c0 6.4-1.4 9-5 9s-5-2.6-5-9 1.4-9 5-9 5 2.6 5 9zm-120.6 8.7c-2.6 0-4.2-1.4-4.9-4v-9.5c.7-2.4 2.6-3.8 4.9-3.8 3.6 0 5.4 2.8 5.4 8.7-.1 5.8-1.8 8.6-5.4 8.6zm166 0c-3.5 0-5.2-2.8-5.2-8.7 0-5.9 1.7-8.7 5.4-8.7 2.1 0 3.8 1.4 4.9 3.5v9.9c-.7 2.6-2.5 4-5.1 4zm196.4.5c-2.4 0-3.6-1.2-3.6-3.5 0-2.6 1.6-3.8 4.7-3.8h4.5v2.6c-.7 3-2.8 4.7-5.6 4.7zm-112.3 0c-2.4 0-3.6-1.2-3.6-3.5 0-2.6 1.6-3.8 4.7-3.8h4.5v2.6c-.7 3-2.8 4.7-5.6 4.7zm221.1-35.8H482v-1.2h8v1.2h-3.4v9.7h-1.3v-9.7zm6.2-1.2h1.4l3.9 9.7 3.9-9.7h1.4v10.9H501v-8.4c-.1.4-.5 1.4-.6 1.5l-2.8 6.8h-1.4l-2.8-6.8c-.1-.2-.4-1.2-.5-1.6v8.4h-1.3v-10.8z" fill="#e07828"/></svg>