<svg width="500" height="500" viewBox="0 0 500 500" fill="none" xmlns="http://www.w3.org/2000/svg">
<rect width="500" height="500" fill="white"/>
<rect x="18" y="18" width="464" height="463" stroke="#32292F" stroke-width="10"/>
<path d="M177 320C164.5 320 152.5 318.167 141 314.5C129.667 310.667 120.583 305.583 113.75 299.25C111.25 296.917 110 294 110 290.5C110 288.167 110.667 286.167 112 284.5C113.333 282.667 114.917 281.75 116.75 281.75C118.917 281.75 121.25 282.667 123.75 284.5C139.25 296.5 156.917 302.5 176.75 302.5C191.083 302.5 202.083 299.75 209.75 294.25C217.417 288.75 221.25 280.917 221.25 270.75C221.25 264.917 219.417 260.25 215.75 256.75C212.083 253.083 207.25 250.167 201.25 248C195.25 245.833 187.167 243.583 177 241.25C163.333 238.083 152.083 234.75 143.25 231.25C134.583 227.75 127.5 222.75 122 216.25C116.667 209.75 114 201.25 114 190.75C114 180.75 116.667 171.917 122 164.25C127.5 156.417 135.083 150.417 144.75 146.25C154.583 141.917 165.75 139.75 178.25 139.75C189.917 139.75 200.75 141.583 210.75 145.25C220.917 148.75 229.417 153.833 236.25 160.5C238.917 163.167 240.25 166.083 240.25 169.25C240.25 171.583 239.583 173.667 238.25 175.5C236.917 177.167 235.333 178 233.5 178C231.667 178 229.25 177.083 226.25 175.25C218.083 168.583 210.5 163.917 203.5 161.25C196.5 158.583 188.083 157.25 178.25 157.25C164.417 157.25 153.667 160.167 146 166C138.333 171.667 134.5 179.667 134.5 190C134.5 198.833 137.833 205.5 144.5 210C151.333 214.333 161.75 218.167 175.75 221.5C190.917 225.167 202.833 228.583 211.5 231.75C220.167 234.75 227.333 239.333 233 245.5C238.833 251.667 241.75 259.917 241.75 270.25C241.75 280.083 239 288.75 233.5 296.25C228.167 303.75 220.583 309.583 210.75 313.75C200.917 317.917 189.667 320 177 320ZM370.797 193.75C373.964 193.75 376.464 194.667 378.297 196.5C380.13 198.333 381.047 200.75 381.047 203.75V309.75C381.047 327.917 376.38 341.583 367.047 350.75C357.714 360.083 343.88 364.75 325.547 364.75C307.714 364.75 292.88 361.25 281.047 354.25C275.047 350.917 272.047 347.083 272.047 342.75C272.047 340.417 272.63 338.5 273.797 337C275.13 335.5 276.797 334.75 278.797 334.75C280.464 334.75 283.464 335.917 287.797 338.25C293.63 341.25 299.38 343.667 305.047 345.5C310.714 347.333 317.464 348.25 325.297 348.25C337.13 348.25 346.047 345.083 352.047 338.75C358.047 332.583 361.047 323.5 361.047 311.5V290C357.547 297.833 352.13 303.833 344.797 308C337.63 312.167 329.13 314.25 319.297 314.25C308.63 314.25 299.13 311.75 290.797 306.75C282.63 301.75 276.214 294.667 271.547 285.5C267.047 276.333 264.797 265.75 264.797 253.75C264.797 241.75 267.047 231.167 271.547 222C276.214 212.833 282.63 205.75 290.797 200.75C299.13 195.75 308.63 193.25 319.297 193.25C328.964 193.25 337.38 195.333 344.547 199.5C351.714 203.667 357.13 209.583 360.797 217.25V203.75C360.797 200.75 361.63 198.333 363.297 196.5C365.13 194.667 367.63 193.75 370.797 193.75ZM323.297 297.5C334.964 297.5 344.13 293.667 350.797 286C357.464 278.167 360.797 267.417 360.797 253.75C360.797 240.25 357.464 229.667 350.797 222C344.297 214.167 335.13 210.25 323.297 210.25C311.464 210.25 302.13 214.167 295.297 222C288.63 229.667 285.297 240.25 285.297 253.75C285.297 267.417 288.63 278.167 295.297 286C302.13 293.667 311.464 297.5 323.297 297.5Z" fill="#32292F"/>
<path d="M100.968 417.512C97.768 417.512 94.696 417.043 91.752 416.104C88.8507 415.123 86.5253 413.821 84.776 412.2C84.136 411.603 83.816 410.856 83.816 409.96C83.816 409.363 83.9867 408.851 84.328 408.424C84.6693 407.955 85.0747 407.72 85.544 407.72C86.0987 407.72 86.696 407.955 87.336 408.424C91.304 411.496 95.8267 413.032 100.904 413.032C104.573 413.032 107.389 412.328 109.352 410.92C111.315 409.512 112.296 407.507 112.296 404.904C112.296 403.411 111.827 402.216 110.888 401.32C109.949 400.381 108.712 399.635 107.176 399.08C105.64 398.525 103.571 397.949 100.968 397.352C97.4693 396.541 94.5893 395.688 92.328 394.792C90.1093 393.896 88.296 392.616 86.888 390.952C85.5227 389.288 84.84 387.112 84.84 384.424C84.84 381.864 85.5227 379.603 86.888 377.64C88.296 375.635 90.2373 374.099 92.712 373.032C95.2293 371.923 98.088 371.368 101.288 371.368C104.275 371.368 107.048 371.837 109.608 372.776C112.211 373.672 114.387 374.973 116.136 376.68C116.819 377.363 117.16 378.109 117.16 378.92C117.16 379.517 116.989 380.051 116.648 380.52C116.307 380.947 115.901 381.16 115.432 381.16C114.963 381.16 114.344 380.925 113.576 380.456C111.485 378.749 109.544 377.555 107.752 376.872C105.96 376.189 103.805 375.848 101.288 375.848C97.7467 375.848 94.9947 376.595 93.032 378.088C91.0693 379.539 90.088 381.587 90.088 384.232C90.088 386.493 90.9413 388.2 92.648 389.352C94.3973 390.461 97.064 391.443 100.648 392.296C104.531 393.235 107.581 394.109 109.8 394.92C112.019 395.688 113.853 396.861 115.304 398.44C116.797 400.019 117.544 402.131 117.544 404.776C117.544 407.293 116.84 409.512 115.432 411.432C114.067 413.352 112.125 414.845 109.608 415.912C107.091 416.979 104.211 417.512 100.968 417.512ZM149.428 409.768C149.897 409.768 150.303 409.96 150.644 410.344C150.985 410.728 151.156 411.219 151.156 411.816C151.156 412.883 150.409 413.864 148.916 414.76C147.38 415.656 145.759 416.339 144.052 416.808C142.345 417.235 140.681 417.448 139.06 417.448C134.239 417.448 130.42 416.019 127.604 413.16C124.831 410.301 123.444 406.355 123.444 401.32C123.444 398.12 124.063 395.304 125.3 392.872C126.537 390.397 128.265 388.477 130.484 387.112C132.745 385.747 135.305 385.064 138.164 385.064C142.217 385.064 145.439 386.387 147.828 389.032C150.217 391.677 151.412 395.261 151.412 399.784C151.412 400.637 151.241 401.256 150.9 401.64C150.559 402.024 150.004 402.216 149.236 402.216H128.628C129.012 409.555 132.489 413.224 139.06 413.224C140.724 413.224 142.153 413.011 143.348 412.584C144.543 412.115 145.823 411.496 147.188 410.728C148.297 410.088 149.044 409.768 149.428 409.768ZM138.228 389.096C135.497 389.096 133.3 389.949 131.636 391.656C130.015 393.363 129.055 395.773 128.756 398.888H146.868C146.783 395.731 145.993 393.32 144.5 391.656C143.007 389.949 140.916 389.096 138.228 389.096ZM171.786 385.064C179.594 385.064 183.498 389.16 183.498 397.352V414.76C183.498 415.528 183.263 416.147 182.794 416.616C182.367 417.085 181.77 417.32 181.002 417.32C180.234 417.32 179.615 417.085 179.146 416.616C178.677 416.147 178.442 415.528 178.442 414.76V411.688C177.631 413.523 176.394 414.952 174.73 415.976C173.066 416.957 171.146 417.448 168.97 417.448C166.965 417.448 165.109 417.043 163.402 416.232C161.738 415.421 160.415 414.291 159.434 412.84C158.453 411.389 157.962 409.789 157.962 408.04C157.962 405.693 158.559 403.88 159.754 402.6C160.949 401.277 162.911 400.339 165.642 399.784C168.373 399.187 172.17 398.888 177.034 398.888H178.442V396.776C178.442 394.216 177.909 392.339 176.842 391.144C175.818 389.949 174.133 389.352 171.786 389.352C168.885 389.352 165.941 390.141 162.954 391.72C161.802 392.445 160.991 392.808 160.522 392.808C160.01 392.808 159.583 392.616 159.242 392.232C158.901 391.848 158.73 391.357 158.73 390.76C158.73 390.163 158.901 389.651 159.242 389.224C159.626 388.755 160.223 388.285 161.034 387.816C162.527 386.963 164.213 386.301 166.09 385.832C168.01 385.32 169.909 385.064 171.786 385.064ZM169.674 413.352C172.234 413.352 174.325 412.499 175.946 410.792C177.61 409.043 178.442 406.803 178.442 404.072V402.216H177.29C173.535 402.216 170.677 402.387 168.714 402.728C166.751 403.027 165.343 403.56 164.49 404.328C163.679 405.053 163.274 406.141 163.274 407.592C163.274 409.256 163.871 410.643 165.066 411.752C166.303 412.819 167.839 413.352 169.674 413.352ZM208.668 385.064C211.398 385.064 213.809 385.725 215.9 387.048C217.99 388.371 219.612 390.248 220.764 392.68C221.916 395.112 222.492 397.928 222.492 401.128C222.492 404.371 221.916 407.229 220.764 409.704C219.612 412.136 217.99 414.035 215.9 415.4C213.809 416.765 211.398 417.448 208.668 417.448C206.236 417.448 204.102 416.915 202.268 415.848C200.476 414.781 199.11 413.267 198.172 411.304V414.76C198.172 415.528 197.937 416.147 197.468 416.616C197.041 417.085 196.422 417.32 195.612 417.32C194.801 417.32 194.161 417.085 193.692 416.616C193.222 416.147 192.988 415.528 192.988 414.76V374.056C192.988 373.331 193.222 372.733 193.692 372.264C194.161 371.795 194.801 371.56 195.612 371.56C196.422 371.56 197.041 371.795 197.468 372.264C197.937 372.691 198.172 373.288 198.172 374.056V391.208C199.11 389.245 200.476 387.731 202.268 386.664C204.102 385.597 206.236 385.064 208.668 385.064ZM207.644 413.16C210.673 413.16 213.02 412.115 214.684 410.024C216.348 407.891 217.18 404.925 217.18 401.128C217.18 397.416 216.348 394.536 214.684 392.488C213.02 390.44 210.673 389.416 207.644 389.416C204.614 389.416 202.268 390.44 200.604 392.488C198.982 394.536 198.172 397.459 198.172 401.256C198.172 405.053 198.982 407.997 200.604 410.088C202.268 412.136 204.614 413.16 207.644 413.16ZM232.862 417.32C232.094 417.32 231.454 417.107 230.942 416.68C230.472 416.211 230.238 415.571 230.238 414.76V374.12C230.238 373.309 230.472 372.691 230.942 372.264C231.454 371.795 232.094 371.56 232.862 371.56C233.587 371.56 234.184 371.795 234.654 372.264C235.166 372.691 235.422 373.309 235.422 374.12V414.76C235.422 415.571 235.166 416.211 234.654 416.68C234.184 417.107 233.587 417.32 232.862 417.32ZM258.041 417.448C255.097 417.448 252.494 416.787 250.233 415.464C248.014 414.141 246.286 412.264 245.049 409.832C243.854 407.357 243.257 404.499 243.257 401.256C243.257 398.013 243.854 395.176 245.049 392.744C246.286 390.269 248.014 388.371 250.233 387.048C252.494 385.725 255.097 385.064 258.041 385.064C260.985 385.064 263.587 385.725 265.849 387.048C268.11 388.371 269.838 390.269 271.033 392.744C272.27 395.176 272.889 398.013 272.889 401.256C272.889 404.499 272.27 407.357 271.033 409.832C269.838 412.264 268.11 414.141 265.849 415.464C263.587 416.787 260.985 417.448 258.041 417.448ZM258.041 413.16C261.113 413.16 263.459 412.157 265.081 410.152C266.745 408.104 267.577 405.139 267.577 401.256C267.577 397.459 266.745 394.536 265.081 392.488C263.417 390.397 261.07 389.352 258.041 389.352C255.011 389.352 252.665 390.397 251.001 392.488C249.337 394.536 248.505 397.459 248.505 401.256C248.505 405.096 249.315 408.04 250.937 410.088C252.601 412.136 254.969 413.16 258.041 413.16ZM305.893 385.192C306.703 385.192 307.343 385.427 307.812 385.896C308.282 386.365 308.517 386.984 308.517 387.752V414.888C308.517 419.539 307.322 423.037 304.933 425.384C302.543 427.773 299.002 428.968 294.309 428.968C289.743 428.968 285.946 428.072 282.917 426.28C281.381 425.427 280.613 424.445 280.613 423.336C280.613 422.739 280.762 422.248 281.061 421.864C281.402 421.48 281.829 421.288 282.341 421.288C282.767 421.288 283.535 421.587 284.645 422.184C286.138 422.952 287.61 423.571 289.061 424.04C290.511 424.509 292.239 424.744 294.245 424.744C297.274 424.744 299.557 423.933 301.093 422.312C302.629 420.733 303.397 418.408 303.397 415.336V409.832C302.501 411.837 301.114 413.373 299.237 414.44C297.402 415.507 295.226 416.04 292.708 416.04C289.978 416.04 287.546 415.4 285.413 414.12C283.322 412.84 281.679 411.027 280.485 408.68C279.333 406.333 278.757 403.624 278.757 400.552C278.757 397.48 279.333 394.771 280.485 392.424C281.679 390.077 283.322 388.264 285.413 386.984C287.546 385.704 289.978 385.064 292.708 385.064C295.183 385.064 297.338 385.597 299.173 386.664C301.007 387.731 302.394 389.245 303.333 391.208V387.752C303.333 386.984 303.546 386.365 303.973 385.896C304.442 385.427 305.082 385.192 305.893 385.192ZM293.733 411.752C296.719 411.752 299.066 410.771 300.773 408.808C302.479 406.803 303.333 404.051 303.333 400.552C303.333 397.096 302.479 394.387 300.773 392.424C299.109 390.419 296.762 389.416 293.733 389.416C290.703 389.416 288.314 390.419 286.565 392.424C284.858 394.387 284.005 397.096 284.005 400.552C284.005 404.051 284.858 406.803 286.565 408.808C288.314 410.771 290.703 411.752 293.733 411.752ZM320.737 417.32C319.969 417.32 319.329 417.107 318.817 416.68C318.347 416.211 318.113 415.571 318.113 414.76V387.752C318.113 386.941 318.347 386.323 318.817 385.896C319.329 385.427 319.969 385.192 320.737 385.192C321.505 385.192 322.123 385.427 322.593 385.896C323.062 386.323 323.297 386.941 323.297 387.752V414.76C323.297 415.613 323.062 416.253 322.593 416.68C322.123 417.107 321.505 417.32 320.737 417.32ZM320.737 378.472C319.713 378.472 318.881 378.173 318.241 377.576C317.601 376.979 317.281 376.189 317.281 375.208C317.281 374.269 317.601 373.501 318.241 372.904C318.881 372.307 319.713 372.008 320.737 372.008C321.761 372.008 322.593 372.307 323.233 372.904C323.873 373.501 324.193 374.269 324.193 375.208C324.193 376.189 323.873 376.979 323.233 377.576C322.593 378.173 321.761 378.472 320.737 378.472ZM356.668 385.192C357.478 385.192 358.097 385.427 358.524 385.896C358.993 386.365 359.228 386.984 359.228 387.752V414.824C359.228 415.549 358.993 416.147 358.524 416.616C358.097 417.085 357.478 417.32 356.668 417.32C355.9 417.32 355.281 417.107 354.812 416.68C354.385 416.211 354.172 415.613 354.172 414.888V411.688C353.19 413.565 351.804 414.995 350.012 415.976C348.262 416.957 346.278 417.448 344.06 417.448C340.348 417.448 337.553 416.424 335.676 414.376C333.798 412.285 332.86 409.213 332.86 405.16V387.752C332.86 386.984 333.094 386.365 333.564 385.896C334.033 385.427 334.673 385.192 335.484 385.192C336.294 385.192 336.913 385.427 337.34 385.896C337.809 386.365 338.044 386.984 338.044 387.752V405.032C338.044 407.805 338.598 409.853 339.708 411.176C340.817 412.456 342.566 413.096 344.956 413.096C347.686 413.096 349.884 412.221 351.548 410.472C353.212 408.68 354.044 406.333 354.044 403.432V387.752C354.044 386.984 354.278 386.365 354.748 385.896C355.217 385.427 355.857 385.192 356.668 385.192ZM403.551 385.064C410.463 385.064 413.919 389.181 413.919 397.416V414.76C413.919 415.571 413.684 416.211 413.215 416.68C412.745 417.107 412.127 417.32 411.359 417.32C410.591 417.32 409.951 417.107 409.439 416.68C408.969 416.211 408.735 415.571 408.735 414.76V397.544C408.735 394.685 408.223 392.616 407.199 391.336C406.175 390.056 404.575 389.416 402.399 389.416C399.796 389.416 397.748 390.291 396.255 392.04C394.761 393.789 394.015 396.157 394.015 399.144V414.76C394.015 415.571 393.759 416.211 393.247 416.68C392.777 417.107 392.159 417.32 391.391 417.32C390.623 417.32 390.004 417.107 389.535 416.68C389.065 416.211 388.831 415.571 388.831 414.76V397.544C388.831 394.685 388.319 392.616 387.295 391.336C386.271 390.056 384.649 389.416 382.431 389.416C379.871 389.416 377.823 390.291 376.287 392.04C374.793 393.789 374.047 396.157 374.047 399.144V414.76C374.047 415.571 373.812 416.211 373.343 416.68C372.873 417.107 372.255 417.32 371.487 417.32C370.719 417.32 370.079 417.107 369.567 416.68C369.097 416.211 368.863 415.571 368.863 414.76V387.752C368.863 386.984 369.097 386.365 369.567 385.896C370.079 385.427 370.719 385.192 371.487 385.192C372.212 385.192 372.809 385.427 373.279 385.896C373.748 386.323 373.983 386.92 373.983 387.688V390.76C374.921 388.925 376.223 387.517 377.887 386.536C379.551 385.555 381.471 385.064 383.647 385.064C388.511 385.064 391.689 387.112 393.183 391.208C394.079 389.331 395.444 387.837 397.279 386.728C399.113 385.619 401.204 385.064 403.551 385.064Z" fill="#32292F"/>
<path d="M62.616 71.688C63.192 71.688 63.64 71.832 63.96 72.12C64.28 72.408 64.44 72.808 64.44 73.32C64.44 73.864 64.28 74.28 63.96 74.568C63.672 74.856 63.224 75 62.616 75H46.728C46.12 75 45.656 74.856 45.336 74.568C45.048 74.28 44.904 73.864 44.904 73.32C44.904 72.808 45.064 72.408 45.384 72.12C45.704 71.832 46.152 71.688 46.728 71.688H52.68V45.96L47.448 49.368C47.192 49.528 46.936 49.608 46.68 49.608C46.232 49.608 45.832 49.4 45.48 48.984C45.16 48.568 45 48.12 45 47.64C45 46.968 45.256 46.488 45.768 46.2L53.064 41.448C53.608 41.096 54.168 40.92 54.744 40.92C55.288 40.92 55.736 41.096 56.088 41.448C56.44 41.8 56.616 42.296 56.616 42.936V71.688H62.616ZM82.1813 75.384C78.3093 75.384 75.3653 73.912 73.3493 70.968C71.3333 68.024 70.3253 63.736 70.3253 58.104C70.3253 52.44 71.3333 48.136 73.3493 45.192C75.3653 42.248 78.3093 40.776 82.1813 40.776C86.0533 40.776 88.9973 42.248 91.0133 45.192C93.0293 48.104 94.0373 52.392 94.0373 58.056C94.0373 63.72 93.0293 68.024 91.0133 70.968C88.9973 73.912 86.0533 75.384 82.1813 75.384ZM82.1813 72.072C84.8693 72.072 86.8533 70.936 88.1333 68.664C89.4133 66.392 90.0533 62.856 90.0533 58.056C90.0533 53.224 89.4133 49.688 88.1333 47.448C86.8853 45.208 84.9013 44.088 82.1813 44.088C79.4933 44.088 77.5093 45.224 76.2293 47.496C74.9493 49.736 74.3093 53.256 74.3093 58.056C74.3093 62.856 74.9493 66.392 76.2293 68.664C77.5093 70.936 79.4933 72.072 82.1813 72.072ZM112.355 53.736C114.403 53.736 116.227 54.184 117.827 55.08C119.427 55.976 120.675 57.24 121.571 58.872C122.467 60.504 122.915 62.376 122.915 64.488C122.915 66.568 122.451 68.44 121.523 70.104C120.595 71.768 119.299 73.064 117.635 73.992C115.971 74.92 114.099 75.384 112.019 75.384C107.923 75.384 104.755 73.96 102.515 71.112C100.307 68.264 99.2025 64.2 99.2025 58.92C99.2025 55.144 99.7145 51.896 100.739 49.176C101.763 46.456 103.251 44.376 105.203 42.936C107.155 41.496 109.475 40.776 112.163 40.776C113.987 40.776 115.795 41.128 117.587 41.832C119.411 42.536 120.963 43.496 122.243 44.712C122.787 45.224 123.059 45.768 123.059 46.344C123.059 46.824 122.931 47.224 122.675 47.544C122.419 47.864 122.115 48.024 121.763 48.024C121.315 48.024 120.851 47.848 120.371 47.496C117.587 45.224 114.883 44.088 112.259 44.088C109.411 44.088 107.187 45.384 105.587 47.976C103.987 50.568 103.187 54.2 103.187 58.872V59.496C103.923 57.704 105.107 56.296 106.739 55.272C108.403 54.248 110.275 53.736 112.355 53.736ZM111.827 72.072C114.003 72.072 115.747 71.384 117.059 70.008C118.371 68.632 119.027 66.808 119.027 64.536C119.027 62.264 118.355 60.456 117.011 59.112C115.699 57.736 113.955 57.048 111.779 57.048C109.571 57.048 107.763 57.752 106.355 59.16C104.979 60.536 104.291 62.328 104.291 64.536C104.291 66.776 104.979 68.6 106.355 70.008C107.763 71.384 109.587 72.072 111.827 72.072Z" fill="#32292F"/>
</svg>
